<?xml version="1.0" encoding="UTF-8"?>
<svg id="Layer_2" data-name="Layer 2" xmlns="http://www.w3.org/2000/svg" xmlns:xlink="http://www.w3.org/1999/xlink" viewBox="0 0 199.5 205.83">
  <defs>
    <style>
      .cls-1 {
        fill: #fdffff;
      }

      .cls-1, .cls-2, .cls-3, .cls-4, .cls-5, .cls-6, .cls-7, .cls-8, .cls-9 {
        stroke-width: 0px;
      }

      .cls-2 {
        fill: url(#linear-gradient);
      }

      .cls-3 {
        fill: #fff;
      }

      .cls-4 {
        fill: #846faa;
      }

      .cls-5 {
        fill: url(#linear-gradient-2);
      }

      .cls-6 {
        fill: #b5a6c0;
      }

      .cls-7 {
        fill: #b4a7c0;
      }

      .cls-8 {
        fill: #867496;
      }

      .cls-9 {
        fill: #ae9fcc;
      }
    </style>
    <linearGradient id="linear-gradient" x1="97.21" y1="-31.47" x2="97.21" y2="167.58" gradientUnits="userSpaceOnUse">
      <stop offset="0" stop-color="#d0c5f3"/>
      <stop offset="1" stop-color="#f6effc"/>
    </linearGradient>
    <linearGradient id="linear-gradient-2" x1="97.21" y1="-24.74" x2="97.21" y2="163.9" gradientUnits="userSpaceOnUse">
      <stop offset="0" stop-color="#f6effc"/>
      <stop offset="1" stop-color="#ddd6f3"/>
    </linearGradient>
  </defs>
  <g id="Design">
    <g>
      <g>
        <path class="cls-6" d="m194.42,24.56v156.7h-6.58v6.58h-6.59v6.58H13.17v-6.58h-6.59v-6.58h-1.49v11.4h6.59v6.59h6.58v6.58h168.1v-6.58h6.58v-6.59h6.58V24.56h-5.08Zm-36.49,18.51v-6.58h-6.59v-6.59H43.07v6.59h-6.59v6.58h-6.58v108.28h5.08V54.47h6.58v-6.58h6.59v-6.59h108.28v6.59h6.58v6.58h1.49v-11.4h-6.58Z"/>
        <path class="cls-2" d="m187.84,13.17v-6.58h-6.59V0H13.17v6.59h-6.59v6.58H0v168.1h6.58v6.58h6.59v6.58h168.09v-6.58h6.59v-6.58h6.58V13.17h-6.58Zm1.49,163.02h-6.58v6.58h-6.59v6.58H18.25v-6.58h-6.59v-6.58h-6.58V18.25h6.58v-6.58h6.59v-6.59h157.92v6.59h6.59v6.58h6.58v157.93Zm-26.32-144.77h-6.59v-6.59H37.98v6.59h-6.58v6.58h-6.58v118.45h6.58v6.58h6.58v6.58h118.45v-6.58h6.59v-6.58h6.58V37.99h-6.58v-6.58Zm1.49,11.66v108.28h-6.58v6.58h-6.59v6.58H43.07v-6.58h-6.59v-6.58h-6.58V43.07h6.58v-6.58h6.59v-6.59h108.27v6.59h6.59v6.58h6.58Z"/>
        <path class="cls-5" d="m182.76,18.25v-6.58h-6.59v-6.59H18.25v6.59h-6.59v6.58h-6.58v157.93h6.58v6.58h6.59v6.58h157.92v-6.58h6.59v-6.58h6.58V18.25h-6.58Zm-13.17,138.19h-6.58v6.58h-6.59v6.58H37.98v-6.58h-6.58v-6.58h-6.58V37.99h6.58v-6.58h6.58v-6.59h118.45v6.59h6.59v6.58h6.58v118.45Z"/>
      </g>
      <polygon class="cls-8" points="164.51 54.47 164.51 151.36 157.93 151.36 157.93 157.93 151.35 157.93 151.35 164.51 43.07 164.51 43.07 157.93 36.49 157.93 36.49 151.36 34.99 151.36 34.99 54.47 41.57 54.47 41.57 47.89 48.16 47.89 48.16 41.31 156.44 41.31 156.44 47.89 163.02 47.89 163.02 54.47 164.51 54.47"/>
      <g>
        <g>
          <polygon class="cls-9" points="164.51 126.21 164.51 151.35 157.93 151.35 157.93 157.93 151.35 157.93 151.35 164.51 77.77 164.51 72.43 143.87 71.72 141.11 67.34 124.16 66.69 121.65 65.98 118.9 65.98 118.89 65.27 116.15 64.37 112.66 63.79 110.41 70.55 108.75 147.86 89.65 148.4 89.51 148.95 91.76 149.09 92.28 150.5 98.01 151.18 100.78 154.58 114.53 160.67 113.02 164.51 126.21"/>
          <g>
            <polygon class="cls-7" points="161.47 151.35 157.93 151.35 157.93 155.49 156.36 155.88 149.22 157.64 121.43 164.51 87.6 164.51 81.58 141.29 80.33 136.47 80.17 135.84 78.53 129.53 76.92 123.34 75.89 119.37 75.17 116.62 73.69 110.91 146.32 92.96 147.8 98.68 147.8 98.68 148.51 101.44 152.79 117.9 161.47 151.35"/>
            <polygon class="cls-7" points="164.51 137.23 164.51 151.35 157.93 151.35 157.93 157.93 151.35 157.93 151.35 164.13 148.52 164.51 87.54 164.51 81.33 141.35 80.04 136.54 79.87 135.92 80.06 135.87 80.17 135.84 82.67 135.23 139.65 121.15 152.79 117.9 158.58 116.47 164.51 137.23"/>
            <rect class="cls-7" x="68.36" y="102.45" width="81.46" height="19.24" transform="translate(241.87 194.71) rotate(166.12)"/>
            <polygon class="cls-3" points="149.22 157.64 121.43 164.51 87.58 164.51 81.49 141.32 80.22 136.49 80.06 135.87 78.4 129.56 76.78 123.38 76.92 123.34 136.37 108.66 137.99 114.85 139.65 121.15 139.81 121.77 149.22 157.64"/>
            <polygon class="cls-3" points="156.95 157.93 151.35 157.93 151.35 164.51 80.65 164.51 74.87 142.95 74.2 140.49 74.18 140.39 73.58 138.15 73.57 138.13 73.62 138.12 80.04 136.54 80.22 136.49 80.33 136.47 82.82 135.85 139.81 121.77 146.07 120.23 156.36 155.88 156.95 157.93"/>
            <rect class="cls-3" x="73.17" y="129.86" width="9.53" height="12.15" transform="translate(186.2 249.21) rotate(166.12)"/>
          </g>
        </g>
        <g>
          <polygon class="cls-9" points="169.59 90.15 168.35 90.46 169.59 95.48 169.77 96.19 169.59 96.23 164.51 97.49 153.41 100.23 151.18 100.78 148.51 101.44 148.41 101.47 75.89 119.37 70.56 120.69 69.6 120.93 69.38 120.98 69.34 120.99 68.19 121.28 66.69 121.65 62.94 122.57 54.21 124.73 52.66 118.48 47.2 119.83 45.72 113.84 39.72 115.32 36.56 102.52 35.87 99.76 29.91 75.6 24.83 55.04 22.62 46.09 24.83 45.54 28.61 44.61 27.13 38.61 29.66 37.99 31.4 37.56 32.6 37.26 31.4 32.42 31.18 31.53 31.4 31.47 31.64 31.41 37.98 29.85 47.54 27.49 58.32 24.83 130.38 7.02 138.25 5.08 146.74 2.98 147.25 5.08 148.15 8.72 153.88 7.3 155.36 13.29 161.03 11.89 167.48 37.99 169.59 46.53 178.27 81.65 172.6 83.05 174.08 89.04 169.59 90.15"/>
          <g>
            <rect class="cls-6" x="60.41" y="16.69" width="96.48" height="90.3" transform="translate(-11.66 27.86) rotate(-13.88)"/>
            <rect class="cls-6" x="60.33" y="21.88" width="102.38" height="78.5" transform="translate(-11.41 28.53) rotate(-13.88)"/>
            <rect class="cls-6" x="60.24" y="27.36" width="108.22" height="66.15" transform="translate(-11.16 29.19) rotate(-13.88)"/>
          </g>
          <g>
            <rect class="cls-3" x="44.06" y="20.73" width="96.48" height="90.3" transform="translate(-13.11 24.06) rotate(-13.88)"/>
            <rect class="cls-3" x="38.35" y="26.61" width="108.02" height="77.96" transform="translate(-13.03 24.06) rotate(-13.88)"/>
            <rect class="cls-3" x="33.85" y="46.47" width="6.17" height="65.61" transform="translate(-17.94 11.17) rotate(-13.88)"/>
          </g>
          <polygon class="cls-9" points="73.36 143.64 72.43 143.87 55.41 148.07 54.03 142.51 48.47 143.88 47.09 138.31 41.52 139.68 40.15 134.12 34.58 135.5 33.2 129.93 29.91 130.74 27.64 131.3 24.83 119.94 20.76 103.49 24.83 102.49 29.91 101.23 35.87 99.76 38.64 99.07 43.01 98 45.76 109.13 47.39 108.73 51.33 107.76 52.71 113.32 54.24 112.95 58.27 111.95 58.79 114.03 59.65 117.52 65.27 116.15 66.91 115.75 67.55 118.51 68.19 121.28 68.78 123.81 72.72 140.86 73.36 143.64"/>
          <polygon class="cls-1" points="68.7 118.22 74.21 140.49 57.5 144.62 56.12 139.05 50.55 140.43 49.18 134.86 43.61 136.23 42.23 130.67 36.66 132.04 35.29 126.48 29.72 127.85 24.21 105.57 40.92 101.45 43.67 112.58 49.24 111.21 50.62 116.78 56.19 115.4 57.56 120.97 68.7 118.22"/>
          <rect class="cls-7" x="62.82" y="118.91" width="6.86" height="5.45" transform="translate(-27.24 19.44) rotate(-13.88)"/>
          <rect class="cls-4" x="63.13" y="50.71" width="6.24" height="36.03" transform="translate(-14.55 17.89) rotate(-13.88)"/>
          <rect class="cls-4" x="107.56" y="39.73" width="6.24" height="36.03" transform="translate(-10.62 28.23) rotate(-13.88)"/>
          <g>
            <rect class="cls-7" x="129.3" y="75.65" width="12.68" height="6.24" transform="translate(-14.93 34.83) rotate(-13.88)"/>
            <rect class="cls-7" x="47.62" y="95.83" width="12.68" height="6.24" transform="translate(-22.16 15.83) rotate(-13.88)"/>
          </g>
        </g>
      </g>
    </g>
  </g>
</svg>